<svg width="193" height="193" viewBox="0 0 193 193" fill="none" xmlns="http://www.w3.org/2000/svg">
    <g filter="url(#filter0_i_437_38786)">
        <path d="M119.335 24.9065L107.741 35.3898C106.564 36.4536 106.472 38.287 107.537 39.4641L174.449 113.468C175.513 114.645 177.347 114.737 178.523 113.674L190.117 103.19C191.294 102.127 191.386 100.293 190.322 99.1161L123.409 25.1124C122.325 23.914 120.511 23.8427 119.335 24.9065ZM117.507 65.4557L105.913 75.9389C104.737 77.0027 104.645 78.8361 105.709 80.0132L153.271 132.616C154.336 133.793 156.169 133.886 157.345 132.822L168.94 122.339C170.116 121.275 170.208 119.442 169.144 118.264L121.581 65.6615C120.498 64.4631 118.705 64.3725 117.507 65.4557ZM86.676 73.8844L75.0817 84.3676C73.9052 85.4314 73.8133 87.2648 74.8776 88.4419L132.115 151.745C133.179 152.922 135.013 153.015 136.189 151.951L147.783 141.468C148.96 140.404 149.052 138.571 147.988 137.394L90.7502 74.0902C89.6665 72.8918 87.8525 72.8206 86.676 73.8844ZM84.8484 114.433L73.2755 124.897C72.099 125.961 72.0071 127.795 73.0714 128.972L110.959 170.874C112.023 172.051 113.856 172.144 115.033 171.08L126.627 160.597C127.804 159.533 127.896 157.7 126.831 156.523L88.9439 114.62C87.8389 113.441 86.0463 113.35 84.8484 114.433ZM75.3021 146.403L63.7079 156.886C62.5313 157.95 62.4395 159.783 63.5037 160.96L89.7811 190.023C90.8453 191.2 92.6787 191.292 93.8552 190.228L105.449 179.745C106.626 178.681 106.718 176.848 105.654 175.671L79.3763 146.609C78.2927 145.41 76.4786 145.339 75.3021 146.403Z"
              fill="url(#paint0_linear_437_38786)"/>
    </g>
    <g filter="url(#filter1_i_437_38786)">
        <path d="M102.975 26.163C104.69 25.7799 106.343 24.9853 107.733 23.7281C112.097 19.7823 112.457 12.9997 108.491 8.6126C104.524 4.22546 97.7608 3.88368 93.3755 7.84875C88.9902 11.8138 88.6513 18.5771 92.6181 22.9642C93.9146 24.3981 95.5013 25.336 97.2094 25.8921L96.3058 45.9629C94.5915 46.346 92.9383 47.1406 91.5479 48.3979C89.2376 50.4868 88.0721 53.3688 88.0707 56.2483L77.0344 59.2646C76.6963 58.6757 76.2747 58.1234 75.791 57.5883C71.8436 53.2226 65.0611 52.8594 60.6758 56.8245C56.2906 60.7896 55.9517 67.5528 59.9184 71.94C61.2149 73.3738 62.8017 74.3118 64.5097 74.8678L63.6061 94.9386C61.8918 95.3217 60.2387 96.1164 58.8482 97.3736C54.4843 101.319 54.124 108.102 58.0908 112.489C58.7487 113.217 59.5156 113.807 60.3273 114.318L56.647 126.63C54.0354 126.58 51.3769 127.467 49.2805 129.362C44.9167 133.308 44.5564 140.091 48.5231 144.478C52.4899 148.865 59.253 149.207 63.6383 145.242C68.0236 141.277 68.3625 134.513 64.3957 130.126C63.7378 129.399 62.9709 128.808 62.1592 128.298L65.8395 115.985C68.4511 116.035 71.1096 115.148 73.1845 113.272C77.5484 109.327 77.9087 102.544 73.942 98.1568C72.6455 96.7229 71.0587 95.785 69.3507 95.2289L70.2543 75.1581C71.9685 74.775 73.6217 73.9804 75.0122 72.7232C77.3225 70.6342 78.488 67.7523 78.4893 64.8727L89.5256 61.8564C89.8637 62.4453 90.2853 62.9976 90.7691 63.5327C94.7165 67.8984 101.499 68.2616 105.884 64.2965C110.27 60.3314 110.608 53.5682 106.642 49.181C105.345 47.7472 103.758 46.8092 102.05 46.2532L102.975 26.163Z"
              fill="url(#paint1_linear_437_38786)"/>
    </g>
    <defs>
        <filter id="filter0_i_437_38786" x="62.7617" y="24.1582" width="128.301" height="170.812"
                filterUnits="userSpaceOnUse" color-interpolation-filters="sRGB">
            <feFlood flood-opacity="0" result="BackgroundImageFix"/>
            <feBlend mode="normal" in="SourceGraphic" in2="BackgroundImageFix" result="shape"/>
            <feColorMatrix in="SourceAlpha" type="matrix" values="0 0 0 0 0 0 0 0 0 0 0 0 0 0 0 0 0 0 127 0"
                           result="hardAlpha"/>
            <feOffset dy="4"/>
            <feGaussianBlur stdDeviation="2"/>
            <feComposite in2="hardAlpha" operator="arithmetic" k2="-1" k3="1"/>
            <feColorMatrix type="matrix" values="0 0 0 0 0 0 0 0 0 0 0 0 0 0 0 0 0 0 0.25 0"/>
            <feBlend mode="normal" in2="shape" result="effect1_innerShadow_437_38786"/>
        </filter>
        <filter id="filter1_i_437_38786" x="45.7637" y="5.08496" width="65.4863" height="146.921"
                filterUnits="userSpaceOnUse" color-interpolation-filters="sRGB">
            <feFlood flood-opacity="0" result="BackgroundImageFix"/>
            <feBlend mode="normal" in="SourceGraphic" in2="BackgroundImageFix" result="shape"/>
            <feColorMatrix in="SourceAlpha" type="matrix" values="0 0 0 0 0 0 0 0 0 0 0 0 0 0 0 0 0 0 127 0"
                           result="hardAlpha"/>
            <feOffset dy="4"/>
            <feGaussianBlur stdDeviation="2"/>
            <feComposite in2="hardAlpha" operator="arithmetic" k2="-1" k3="1"/>
            <feColorMatrix type="matrix" values="0 0 0 0 0 0 0 0 0 0 0 0 0 0 0 0 0 0 0.25 0"/>
            <feBlend mode="normal" in2="shape" result="effect1_innerShadow_437_38786"/>
        </filter>
        <linearGradient id="paint0_linear_437_38786" x1="96.8988" y1="175.916" x2="139.561" y2="47.3965"
                        gradientUnits="userSpaceOnUse">
            <stop stop-color="#2478F8" stop-opacity="0.75"/>
            <stop offset="0.401042" stop-color="#7E6CEF" stop-opacity="0.5"/>
            <stop offset="1" stop-color="white" stop-opacity="0.75"/>
        </linearGradient>
        <linearGradient id="paint1_linear_437_38786" x1="62.1738" y1="137.587" x2="87.8484" y2="14.4532"
                        gradientUnits="userSpaceOnUse">
            <stop stop-color="#2478F8" stop-opacity="0.75"/>
            <stop offset="0.401042" stop-color="#7E6CEF" stop-opacity="0.5"/>
            <stop offset="1" stop-color="#E9F2FF"/>
        </linearGradient>
    </defs>
</svg>
