<svg width="12" height="12" viewBox="0 0 12 12" fill="none" xmlns="http://www.w3.org/2000/svg">
    <path d="M9.39777 5.66233L3.36027 0.9467C3.34449 0.93428 3.32553 0.926562 3.30557 0.924431C3.2856 0.9223 3.26544 0.925844 3.2474 0.934655C3.22936 0.943466 3.21417 0.957188 3.20357 0.974243C3.19298 0.991299 3.18741 1.011 3.1875 1.03108V2.06634C3.1875 2.13197 3.2183 2.19491 3.2692 2.23509L8.09063 5.99983L3.2692 9.76456C3.21697 9.80474 3.1875 9.86768 3.1875 9.93331V10.9686C3.1875 11.0583 3.29063 11.1079 3.36027 11.053L9.39777 6.33733C9.44908 6.2973 9.4906 6.2461 9.51915 6.18761C9.5477 6.12913 9.56254 6.06491 9.56254 5.99983C9.56254 5.93475 9.5477 5.87052 9.51915 5.81204C9.4906 5.75356 9.44908 5.70235 9.39777 5.66233Z"
          fill="#8C8C8C"/>
</svg>
