<svg width="427" height="427" viewBox="0 0 427 427" fill="none" xmlns="http://www.w3.org/2000/svg">
    <g filter="url(#filter0_d_437_38783)">
        <g filter="url(#filter1_bd_437_38783)">
            <rect x="16.3887" y="230.714" width="225.1" height="215.947" rx="35"
                  transform="rotate(-42.1192 16.3887 230.714)" fill="white" fill-opacity="0.7"
                  shape-rendering="crispEdges"/>
        </g>
        <g filter="url(#filter2_i_437_38783)">
            <path d="M194.335 162.907L182.741 173.39C181.564 174.454 181.472 176.287 182.537 177.464L249.449 251.468C250.513 252.645 252.347 252.737 253.523 251.674L265.117 241.19C266.294 240.127 266.386 238.293 265.322 237.116L198.409 163.112C197.325 161.914 195.511 161.843 194.335 162.907ZM192.507 203.456L180.913 213.939C179.737 215.003 179.645 216.836 180.709 218.013L228.271 270.616C229.336 271.793 231.169 271.886 232.345 270.822L243.94 260.339C245.116 259.275 245.208 257.442 244.144 256.264L196.581 203.662C195.498 202.463 193.705 202.373 192.507 203.456ZM161.676 211.884L150.082 222.368C148.905 223.431 148.813 225.265 149.878 226.442L207.115 289.745C208.179 290.922 210.013 291.015 211.189 289.951L222.783 279.468C223.96 278.404 224.052 276.571 222.988 275.394L165.75 212.09C164.667 210.892 162.853 210.821 161.676 211.884ZM159.848 252.433L148.276 262.897C147.099 263.961 147.007 265.795 148.071 266.972L185.959 308.874C187.023 310.051 188.856 310.144 190.033 309.08L201.627 298.597C202.804 297.533 202.896 295.7 201.831 294.523L163.944 252.62C162.839 251.441 161.046 251.35 159.848 252.433ZM150.302 284.403L138.708 294.886C137.531 295.95 137.439 297.783 138.504 298.96L164.781 328.023C165.845 329.2 167.679 329.292 168.855 328.228L180.449 317.745C181.626 316.681 181.718 314.848 180.654 313.671L154.376 284.609C153.293 283.41 151.479 283.339 150.302 284.403Z"
                  fill="url(#paint0_linear_437_38783)"/>
        </g>
        <g filter="url(#filter3_i_437_38783)">
            <path d="M177.975 164.163C179.69 163.78 181.343 162.985 182.733 161.728C187.097 157.782 187.457 151 183.491 146.613C179.524 142.225 172.761 141.884 168.376 145.849C163.99 149.814 163.651 156.577 167.618 160.964C168.915 162.398 170.501 163.336 172.209 163.892L171.306 183.963C169.592 184.346 167.938 185.141 166.548 186.398C164.238 188.487 163.072 191.369 163.071 194.248L152.034 197.265C151.696 196.676 151.275 196.123 150.791 195.588C146.844 191.223 140.061 190.859 135.676 194.825C131.291 198.79 130.952 205.553 134.918 209.94C136.215 211.374 137.802 212.312 139.51 212.868L138.606 232.939C136.892 233.322 135.239 234.116 133.848 235.374C129.484 239.319 129.124 246.102 133.091 250.489C133.749 251.217 134.516 251.807 135.327 252.318L131.647 264.63C129.035 264.58 126.377 265.467 124.281 267.362C119.917 271.308 119.556 278.091 123.523 282.478C127.49 286.865 134.253 287.207 138.638 283.242C143.024 279.277 143.362 272.513 139.396 268.126C138.738 267.399 137.971 266.808 137.159 266.298L140.84 253.985C143.451 254.035 146.11 253.148 148.185 251.272C152.548 247.327 152.909 240.544 148.942 236.157C147.646 234.723 146.059 233.785 144.351 233.229L145.254 213.158C146.969 212.775 148.622 211.98 150.012 210.723C152.322 208.634 153.488 205.752 153.489 202.873L164.526 199.856C164.864 200.445 165.285 200.998 165.769 201.533C169.716 205.898 176.499 206.262 180.884 202.297C185.27 198.331 185.608 191.568 181.642 187.181C180.345 185.747 178.758 184.809 177.05 184.253L177.975 164.163Z"
                  fill="url(#paint1_linear_437_38783)"/>
        </g>
    </g>
    <g filter="url(#filter4_d_437_38783)">
        <g filter="url(#filter5_bd_437_38783)">
            <rect x="216.514" y="22.2324" width="175.691" height="168.546" rx="35"
                  transform="rotate(16.7443 216.514 22.2324)" fill="white" fill-opacity="0.74"
                  shape-rendering="crispEdges"/>
        </g>
        <g filter="url(#filter6_bd_437_38783)">
            <rect x="216.514" y="22.2324" width="175.691" height="168.546" rx="35"
                  transform="rotate(16.7443 216.514 22.2324)" fill="white" fill-opacity="0.74"
                  shape-rendering="crispEdges"/>
        </g>
        <g clip-path="url(#clip0_437_38783)">
            <g filter="url(#filter7_i_437_38783)">
                <path d="M246.306 136.451C246.306 136.451 239.287 140.271 236.568 153.638C236.496 154 236.498 154.374 236.573 154.736C236.648 155.098 236.796 155.441 237.007 155.745C237.218 156.048 237.488 156.307 237.801 156.504C238.113 156.701 238.463 156.833 238.828 156.892C251.867 158.901 258.295 153.463 258.295 153.463C260.491 151.828 261.976 149.412 262.443 146.714C262.911 144.016 262.325 141.241 260.806 138.963C257.496 134.265 251.527 133.431 246.306 136.451Z"
                      fill="url(#paint2_linear_437_38783)"/>
                <path d="M274.171 146.205C275.589 148.944 276.212 152.026 275.969 155.1C275.425 159.881 274.185 164.557 272.287 168.978C272.134 169.345 272.089 169.748 272.158 170.14C272.228 170.532 272.408 170.895 272.678 171.187C272.948 171.479 273.296 171.688 273.681 171.788C274.066 171.887 274.472 171.875 274.849 171.75C286.811 167.874 297.794 158.28 294.541 142.721C288.099 145.396 281.137 146.587 274.171 146.205Z"
                      fill="url(#paint3_linear_437_38783)"/>
                <path d="M250.704 119.247C253.685 120.054 256.38 121.68 258.483 123.941C260.455 117.247 263.919 111.086 268.614 105.923C255.053 97.6198 242.323 104.743 234.643 114.703C234.401 115.014 234.254 115.389 234.219 115.782C234.184 116.175 234.263 116.57 234.447 116.919C234.629 117.274 234.909 117.57 235.254 117.77C235.6 117.97 235.995 118.066 236.394 118.047C241.197 117.748 246.018 118.153 250.704 119.247Z"
                      fill="url(#paint4_linear_437_38783)"/>
                <path d="M323.58 97.4214C323.594 96.6298 323.356 95.8542 322.9 95.207C322.444 94.5598 321.793 94.0747 321.043 93.822C316.676 92.3703 312.12 91.562 307.52 91.4225C307.32 95.7459 308.565 100.013 311.059 103.55C313.553 107.087 317.155 109.692 321.295 110.954C322.708 106.578 323.478 102.019 323.58 97.4214Z"
                      fill="url(#paint5_linear_437_38783)"/>
                <path d="M303.621 91.4689C296.612 91.8513 289.828 94.0676 283.945 97.8961C264.646 110.415 262.002 126.038 262.002 126.038L273.383 142.189C273.383 142.189 288.987 144.953 307.266 130.989C312.852 126.735 317.223 121.087 319.939 114.613C315.062 113.072 310.824 109.974 307.877 105.793C304.929 101.613 303.434 96.5807 303.621 91.4689ZM291.373 124.469C289.784 124.194 288.312 123.454 287.144 122.342C285.975 121.23 285.163 119.797 284.809 118.223C284.455 116.65 284.576 115.007 285.156 113.502C285.736 111.997 286.749 110.698 288.067 109.769C289.386 108.839 290.95 108.322 292.562 108.282C294.174 108.242 295.762 108.681 297.125 109.543C298.488 110.406 299.565 111.653 300.219 113.127C300.873 114.602 301.075 116.237 300.8 117.826C300.617 118.881 300.228 119.89 299.655 120.795C299.083 121.7 298.338 122.483 297.462 123.1C296.587 123.717 295.599 124.155 294.554 124.39C293.509 124.625 292.428 124.652 291.373 124.469Z"
                      fill="url(#paint6_linear_437_38783)"/>
            </g>
        </g>
    </g>
    <defs>
        <filter id="filter0_d_437_38783" x="5.82422" y="72.1797" width="340.928" height="340.278"
                filterUnits="userSpaceOnUse" color-interpolation-filters="sRGB">
            <feFlood flood-opacity="0" result="BackgroundImageFix"/>
            <feColorMatrix in="SourceAlpha" type="matrix" values="0 0 0 0 0 0 0 0 0 0 0 0 0 0 0 0 0 0 127 0"
                           result="hardAlpha"/>
            <feOffset dx="4" dy="7"/>
            <feGaussianBlur stdDeviation="14.5"/>
            <feComposite in2="hardAlpha" operator="out"/>
            <feColorMatrix type="matrix" values="0 0 0 0 0.0705903 0 0 0 0 0.395922 0 0 0 0 0.891667 0 0 0 1 0"/>
            <feBlend mode="normal" in2="BackgroundImageFix" result="effect1_dropShadow_437_38783"/>
            <feBlend mode="normal" in="SourceGraphic" in2="effect1_dropShadow_437_38783" result="shape"/>
        </filter>
        <filter id="filter1_bd_437_38783" x="-69.1758" y="-5.82031" width="482.928" height="482.278"
                filterUnits="userSpaceOnUse" color-interpolation-filters="sRGB">
            <feFlood flood-opacity="0" result="BackgroundImageFix"/>
            <feGaussianBlur in="BackgroundImage" stdDeviation="50"/>
            <feComposite in2="SourceAlpha" operator="in" result="effect1_backgroundBlur_437_38783"/>
            <feColorMatrix in="SourceAlpha" type="matrix" values="0 0 0 0 0 0 0 0 0 0 0 0 0 0 0 0 0 0 127 0"
                           result="hardAlpha"/>
            <feOffset dx="10" dy="10"/>
            <feGaussianBlur stdDeviation="20"/>
            <feComposite in2="hardAlpha" operator="out"/>
            <feColorMatrix type="matrix" values="0 0 0 0 0.427451 0 0 0 0 0.552941 0 0 0 0 0.678431 0 0 0 0.25 0"/>
            <feBlend mode="normal" in2="effect1_backgroundBlur_437_38783" result="effect2_dropShadow_437_38783"/>
            <feBlend mode="normal" in="SourceGraphic" in2="effect2_dropShadow_437_38783" result="shape"/>
        </filter>
        <filter id="filter2_i_437_38783" x="137.762" y="162.158" width="128.301" height="170.812"
                filterUnits="userSpaceOnUse" color-interpolation-filters="sRGB">
            <feFlood flood-opacity="0" result="BackgroundImageFix"/>
            <feBlend mode="normal" in="SourceGraphic" in2="BackgroundImageFix" result="shape"/>
            <feColorMatrix in="SourceAlpha" type="matrix" values="0 0 0 0 0 0 0 0 0 0 0 0 0 0 0 0 0 0 127 0"
                           result="hardAlpha"/>
            <feOffset dy="4"/>
            <feGaussianBlur stdDeviation="2"/>
            <feComposite in2="hardAlpha" operator="arithmetic" k2="-1" k3="1"/>
            <feColorMatrix type="matrix" values="0 0 0 0 0 0 0 0 0 0 0 0 0 0 0 0 0 0 0.25 0"/>
            <feBlend mode="normal" in2="shape" result="effect1_innerShadow_437_38783"/>
        </filter>
        <filter id="filter3_i_437_38783" x="120.764" y="143.085" width="65.4863" height="146.921"
                filterUnits="userSpaceOnUse" color-interpolation-filters="sRGB">
            <feFlood flood-opacity="0" result="BackgroundImageFix"/>
            <feBlend mode="normal" in="SourceGraphic" in2="BackgroundImageFix" result="shape"/>
            <feColorMatrix in="SourceAlpha" type="matrix" values="0 0 0 0 0 0 0 0 0 0 0 0 0 0 0 0 0 0 127 0"
                           result="hardAlpha"/>
            <feOffset dy="4"/>
            <feGaussianBlur stdDeviation="2"/>
            <feComposite in2="hardAlpha" operator="arithmetic" k2="-1" k3="1"/>
            <feColorMatrix type="matrix" values="0 0 0 0 0 0 0 0 0 0 0 0 0 0 0 0 0 0 0.25 0"/>
            <feBlend mode="normal" in2="shape" result="effect1_innerShadow_437_38783"/>
        </filter>
        <filter id="filter4_d_437_38783" x="163.545" y="21.8223" width="225.619" height="220.837"
                filterUnits="userSpaceOnUse" color-interpolation-filters="sRGB">
            <feFlood flood-opacity="0" result="BackgroundImageFix"/>
            <feColorMatrix in="SourceAlpha" type="matrix" values="0 0 0 0 0 0 0 0 0 0 0 0 0 0 0 0 0 0 127 0"
                           result="hardAlpha"/>
            <feOffset dy="4"/>
            <feGaussianBlur stdDeviation="6.5"/>
            <feComposite in2="hardAlpha" operator="out"/>
            <feColorMatrix type="matrix" values="0 0 0 0 0.141176 0 0 0 0 0.470588 0 0 0 0 0.972549 0 0 0 0.44 0"/>
            <feBlend mode="normal" in2="BackgroundImageFix" result="effect1_dropShadow_437_38783"/>
            <feBlend mode="normal" in="SourceGraphic" in2="effect1_dropShadow_437_38783" result="shape"/>
        </filter>
        <filter id="filter5_bd_437_38783" x="76.5449" y="-69.1777" width="399.619" height="394.837"
                filterUnits="userSpaceOnUse" color-interpolation-filters="sRGB">
            <feFlood flood-opacity="0" result="BackgroundImageFix"/>
            <feGaussianBlur in="BackgroundImage" stdDeviation="50"/>
            <feComposite in2="SourceAlpha" operator="in" result="effect1_backgroundBlur_437_38783"/>
            <feColorMatrix in="SourceAlpha" type="matrix" values="0 0 0 0 0 0 0 0 0 0 0 0 0 0 0 0 0 0 127 0"
                           result="hardAlpha"/>
            <feOffset dx="10" dy="10"/>
            <feGaussianBlur stdDeviation="20"/>
            <feComposite in2="hardAlpha" operator="out"/>
            <feColorMatrix type="matrix" values="0 0 0 0 0.427451 0 0 0 0 0.552941 0 0 0 0 0.678431 0 0 0 0.25 0"/>
            <feBlend mode="normal" in2="effect1_backgroundBlur_437_38783" result="effect2_dropShadow_437_38783"/>
            <feBlend mode="normal" in="SourceGraphic" in2="effect2_dropShadow_437_38783" result="shape"/>
        </filter>
        <filter id="filter6_bd_437_38783" x="76.5449" y="-69.1777" width="399.619" height="394.837"
                filterUnits="userSpaceOnUse" color-interpolation-filters="sRGB">
            <feFlood flood-opacity="0" result="BackgroundImageFix"/>
            <feGaussianBlur in="BackgroundImage" stdDeviation="50"/>
            <feComposite in2="SourceAlpha" operator="in" result="effect1_backgroundBlur_437_38783"/>
            <feColorMatrix in="SourceAlpha" type="matrix" values="0 0 0 0 0 0 0 0 0 0 0 0 0 0 0 0 0 0 127 0"
                           result="hardAlpha"/>
            <feOffset dx="10" dy="10"/>
            <feGaussianBlur stdDeviation="20"/>
            <feComposite in2="hardAlpha" operator="out"/>
            <feColorMatrix type="matrix" values="0 0 0 0 0.427451 0 0 0 0 0.552941 0 0 0 0 0.678431 0 0 0 0.25 0"/>
            <feBlend mode="normal" in2="effect1_backgroundBlur_437_38783" result="effect2_dropShadow_437_38783"/>
            <feBlend mode="normal" in="SourceGraphic" in2="effect2_dropShadow_437_38783" result="shape"/>
        </filter>
        <filter id="filter7_i_437_38783" x="234.211" y="91.4229" width="89.3691" height="84.4316"
                filterUnits="userSpaceOnUse" color-interpolation-filters="sRGB">
            <feFlood flood-opacity="0" result="BackgroundImageFix"/>
            <feBlend mode="normal" in="SourceGraphic" in2="BackgroundImageFix" result="shape"/>
            <feColorMatrix in="SourceAlpha" type="matrix" values="0 0 0 0 0 0 0 0 0 0 0 0 0 0 0 0 0 0 127 0"
                           result="hardAlpha"/>
            <feOffset dy="4"/>
            <feGaussianBlur stdDeviation="2"/>
            <feComposite in2="hardAlpha" operator="arithmetic" k2="-1" k3="1"/>
            <feColorMatrix type="matrix" values="0 0 0 0 0 0 0 0 0 0 0 0 0 0 0 0 0 0 0.25 0"/>
            <feBlend mode="normal" in2="shape" result="effect1_innerShadow_437_38783"/>
        </filter>
        <linearGradient id="paint0_linear_437_38783" x1="171.899" y1="313.916" x2="214.561" y2="185.397"
                        gradientUnits="userSpaceOnUse">
            <stop stop-color="#2478F8" stop-opacity="0.75"/>
            <stop offset="0.401042" stop-color="#7E6CEF" stop-opacity="0.5"/>
            <stop offset="1" stop-color="white" stop-opacity="0.75"/>
        </linearGradient>
        <linearGradient id="paint1_linear_437_38783" x1="137.174" y1="275.587" x2="162.848" y2="152.453"
                        gradientUnits="userSpaceOnUse">
            <stop stop-color="#2478F8" stop-opacity="0.75"/>
            <stop offset="0.401042" stop-color="#7E6CEF" stop-opacity="0.5"/>
            <stop offset="1" stop-color="#E9F2FF"/>
        </linearGradient>
        <linearGradient id="paint2_linear_437_38783" x1="265.7" y1="138.368" x2="330.347" y2="89.2593"
                        gradientUnits="userSpaceOnUse">
            <stop stop-color="#1570FC" stop-opacity="0.75"/>
            <stop offset="0.507314" stop-color="#7E6CEF" stop-opacity="0.5"/>
            <stop offset="1" stop-color="#F9FBFF"/>
        </linearGradient>
        <linearGradient id="paint3_linear_437_38783" x1="265.7" y1="138.368" x2="330.347" y2="89.2593"
                        gradientUnits="userSpaceOnUse">
            <stop stop-color="#1570FC" stop-opacity="0.75"/>
            <stop offset="0.507314" stop-color="#7E6CEF" stop-opacity="0.5"/>
            <stop offset="1" stop-color="#F9FBFF"/>
        </linearGradient>
        <linearGradient id="paint4_linear_437_38783" x1="265.7" y1="138.368" x2="330.347" y2="89.2593"
                        gradientUnits="userSpaceOnUse">
            <stop stop-color="#1570FC" stop-opacity="0.75"/>
            <stop offset="0.507314" stop-color="#7E6CEF" stop-opacity="0.5"/>
            <stop offset="1" stop-color="#F9FBFF"/>
        </linearGradient>
        <linearGradient id="paint5_linear_437_38783" x1="265.7" y1="138.368" x2="330.347" y2="89.2593"
                        gradientUnits="userSpaceOnUse">
            <stop stop-color="#1570FC" stop-opacity="0.75"/>
            <stop offset="0.507314" stop-color="#7E6CEF" stop-opacity="0.5"/>
            <stop offset="1" stop-color="#F9FBFF"/>
        </linearGradient>
        <linearGradient id="paint6_linear_437_38783" x1="265.7" y1="138.368" x2="330.347" y2="89.2593"
                        gradientUnits="userSpaceOnUse">
            <stop stop-color="#1570FC" stop-opacity="0.75"/>
            <stop offset="0.507314" stop-color="#7E6CEF" stop-opacity="0.5"/>
            <stop offset="1" stop-color="#F9FBFF"/>
        </linearGradient>
        <clipPath id="clip0_437_38783">
            <rect width="92.5341" height="92.5341" fill="white" transform="translate(238.826 74.8936) rotate(9.8261)"/>
        </clipPath>
    </defs>
</svg>
