<svg width="140" height="24" viewBox="0 0 140 24" fill="none" xmlns="http://www.w3.org/2000/svg">
    <path d="M62.6111 4.8457H64.4539L56.9503 19.1459H54.3286L46.8201 4.8457H48.8952L55.7556 17.9495L62.6111 4.8457Z"
          fill="white"/>
    <path d="M67.4602 4.8457H69.2473V19.1459H67.4602V4.8457Z" fill="white"/>
    <path d="M84.1236 11.1022C85.1039 11.1022 85.9451 11.1431 86.6471 11.2233C87.3492 11.3052 87.94 11.4246 88.4212 11.5834C88.9023 11.7421 89.2853 11.9401 89.5717 12.1774C89.8564 12.4147 90.0773 12.6848 90.2328 12.9859C90.3883 13.2887 90.4881 13.6258 90.5356 14.0006C90.5814 14.3753 90.606 14.7796 90.606 15.2165C90.606 15.6486 90.5667 16.0561 90.4898 16.4357C90.4128 16.8154 90.2737 17.164 90.0757 17.4782C89.8777 17.7941 89.6077 18.0739 89.2656 18.3227C88.9236 18.5698 88.4899 18.7809 87.9629 18.9528C87.436 19.1262 86.801 19.2572 86.0596 19.3472C85.3183 19.4372 84.4509 19.4814 83.4575 19.4814H81.0747C80.1811 19.4814 79.3989 19.447 78.7279 19.3783C78.0569 19.3095 77.4808 19.2064 76.9964 19.0657C76.512 18.9266 76.1127 18.7498 75.7952 18.5354C75.4793 18.321 75.2257 18.0707 75.0358 17.781C74.846 17.493 74.7151 17.164 74.6398 16.7941C74.5645 16.4243 74.5285 16.0168 74.5285 15.57H76.3156C76.3156 16.1379 76.3958 16.5814 76.5578 16.9038C76.7198 17.2246 76.9866 17.4668 77.3581 17.6271C77.7312 17.7875 78.2189 17.889 78.8244 17.9299C79.43 17.9708 80.1795 17.9905 81.0731 17.9905H83.4559C84.4984 17.9905 85.3641 17.9414 86.0531 17.8399C86.7421 17.7401 87.2919 17.5813 87.7011 17.362C88.1102 17.1427 88.3999 16.858 88.5668 16.5045C88.7337 16.151 88.8188 15.7222 88.8188 15.2149C88.8188 14.7075 88.7616 14.287 88.647 13.9498C88.5324 13.6127 88.305 13.3443 87.9678 13.143C87.6291 12.9433 87.1528 12.801 86.5391 12.7159C85.9254 12.6308 85.1202 12.5899 84.1285 12.5899H81.6704C80.5772 12.5899 79.6427 12.5489 78.8637 12.4687C78.0847 12.3886 77.4317 12.2724 76.9031 12.1202C76.3762 11.968 75.9539 11.7781 75.6364 11.5523C75.3206 11.3264 75.08 11.0662 74.9147 10.7749C74.7494 10.4836 74.6431 10.1596 74.594 9.80281C74.5449 9.44604 74.5187 9.05982 74.5187 8.64413C74.5187 8.21045 74.558 7.80622 74.6349 7.43309C74.7118 7.05995 74.8574 6.72446 75.0686 6.42334C75.2797 6.12221 75.5677 5.85382 75.9343 5.61815C76.3009 5.38249 76.7706 5.18447 77.345 5.02736C77.9194 4.86861 78.61 4.74915 79.4169 4.66896C80.2237 4.58877 81.1729 4.54785 82.2661 4.54785H84.0532C84.9468 4.54785 85.729 4.58058 86.4 4.64604C87.071 4.71151 87.6471 4.81297 88.1315 4.95372C88.6159 5.09282 89.0169 5.26793 89.3376 5.47577C89.6568 5.68362 89.9121 5.93237 90.1003 6.2204C90.2901 6.50844 90.421 6.83575 90.4963 7.20233C90.5716 7.56892 90.6076 7.97478 90.6076 8.42156H88.8205C88.8205 7.8635 88.7403 7.4249 88.5783 7.10905C88.4162 6.7932 88.1495 6.5559 87.778 6.39715C87.4049 6.23841 86.9155 6.14021 86.3067 6.0993C85.6979 6.05839 84.9468 6.03875 84.0532 6.03875H82.2661C81.0747 6.03875 80.0944 6.0813 79.3236 6.16476C78.5544 6.24823 77.9456 6.38897 77.4988 6.58863C77.0521 6.78665 76.7411 7.05341 76.5676 7.3889C76.3942 7.72439 76.3074 8.14335 76.3074 8.64577C76.3074 8.95671 76.3287 9.23165 76.3729 9.47386C76.4154 9.71607 76.5054 9.92882 76.638 10.1121C76.7722 10.2954 76.9588 10.4492 77.201 10.5736C77.4432 10.698 77.7623 10.7995 78.16 10.8813C78.5577 10.9615 79.0421 11.0188 79.6165 11.0531C80.191 11.0875 80.875 11.1039 81.6688 11.1039H84.1236V11.1022Z"
          fill="white"/>
    <path d="M112.184 4.8457V11.9958C112.184 12.8402 112.172 13.6094 112.151 14.305C112.13 15.0005 112.058 15.624 111.937 16.1755C111.816 16.7287 111.624 17.2082 111.364 17.619C111.104 18.0281 110.731 18.3685 110.246 18.6385C109.762 18.9086 109.146 19.1099 108.398 19.2441C107.651 19.3766 106.731 19.4437 105.638 19.4437H101.448C100.355 19.4437 99.4351 19.3766 98.6872 19.2441C97.9393 19.1099 97.3239 18.9086 96.8395 18.6385C96.3551 18.3685 95.982 18.0281 95.7169 17.619C95.4534 17.2098 95.2603 16.7287 95.1392 16.1755C95.0181 15.6224 94.9477 14.9989 94.9297 14.305C94.9117 13.6094 94.9019 12.8402 94.9019 11.9958V4.8457H96.689V11.9958C96.689 12.8893 96.6971 13.6569 96.7119 14.3C96.7266 14.9432 96.779 15.4833 96.8657 15.9251C96.9525 16.3654 97.0899 16.7205 97.2798 16.9873C97.4696 17.254 97.7413 17.4586 98.0948 17.6026C98.4483 17.745 98.8967 17.8399 99.44 17.8857C99.9833 17.9315 100.651 17.9561 101.446 17.9561H105.636C106.425 17.9561 107.091 17.9332 107.637 17.8857C108.184 17.8399 108.632 17.745 108.983 17.6026C109.333 17.4602 109.605 17.2557 109.798 16.9873C109.991 16.7205 110.132 16.367 110.222 15.9251C110.312 15.4849 110.362 14.9432 110.375 14.3C110.389 13.6569 110.393 12.8893 110.393 11.9958L110.384 4.8457H112.184Z"
          fill="white"/>
    <path d="M118.858 6.03711V19.1459H117.071V4.8457H119.946L128.276 17.3604L136.616 4.8457H139.563V19.1459H137.776V6.2335L129.286 19.1475H127.479L118.858 6.03711Z"
          fill="white"/>
    <path d="M20.9839 14.3311L12.7193 4.7998H4.19617L20.9839 23.9998L37.7716 4.7998H29.2501L20.9839 14.3311Z"
          fill="white"/>
    <path d="M26.9818 0L20.9838 6.86041L14.9859 0H0L2.7985 3.19945H13.3821L20.9838 11.8961L28.5872 3.19945H39.1708L41.9677 0H26.9818Z"
          fill="white"/>
</svg>