<svg width="18" height="18" viewBox="0 0 18 18" fill="none" xmlns="http://www.w3.org/2000/svg">
    <path fill-rule="evenodd" clip-rule="evenodd"
          d="M9.0013 2.05588C8.81712 2.05588 8.64049 2.12905 8.51026 2.25928C8.38002 2.38951 8.30686 2.56615 8.30686 2.75033V2.87115C8.30543 3.23005 8.19908 3.58069 8.00091 3.87992C7.80275 4.17915 7.52141 4.4139 7.19153 4.55528L7.06051 4.61144H6.99098C6.69606 4.71149 6.37963 4.73535 6.07144 4.67947C5.70964 4.61386 5.37578 4.44138 5.11292 4.18426L5.10745 4.1789L5.06581 4.13721C5.00132 4.07264 4.92445 4.02114 4.84015 3.9862C4.75585 3.95125 4.66548 3.93326 4.57422 3.93326C4.48296 3.93326 4.39259 3.95125 4.30829 3.9862C4.22398 4.02114 4.14739 4.07237 4.0829 4.13693L4.08235 4.13748C4.01779 4.20197 3.96656 4.27856 3.93162 4.36287C3.89667 4.44717 3.87868 4.53754 3.87868 4.6288C3.87868 4.72006 3.89667 4.81042 3.93162 4.89473C3.96656 4.97903 4.01779 5.05562 4.08235 5.12012L4.12971 5.16747C4.38683 5.43033 4.55928 5.76422 4.62489 6.12602C4.68918 6.48062 4.64792 6.84614 4.50648 7.17725C4.37761 7.51514 4.15198 7.80774 3.85758 8.0183C3.55724 8.23312 3.19921 8.35261 2.83004 8.36125L2.82192 8.36144H2.7513C2.56712 8.36144 2.39049 8.4346 2.26026 8.56484C2.13002 8.69507 2.05686 8.8717 2.05686 9.05588C2.05686 9.24006 2.13002 9.41669 2.26026 9.54693C2.39049 9.67716 2.56712 9.75033 2.7513 9.75033H2.87213C3.23102 9.75176 3.58167 9.85811 3.8809 10.0563C4.17909 10.2537 4.41325 10.5338 4.55478 10.8622C4.70205 11.1977 4.74582 11.5696 4.68044 11.9302C4.61484 12.292 4.44236 12.6258 4.18523 12.8887L4.17988 12.8942L4.13818 12.9358C4.07361 13.0003 4.02212 13.0772 3.98717 13.1615C3.95223 13.2458 3.93424 13.3361 3.93424 13.4274C3.93424 13.5187 3.95223 13.609 3.98717 13.6933C4.02212 13.7776 4.07334 13.8542 4.13791 13.9187L4.13846 13.9193C4.20295 13.9838 4.27954 14.0351 4.36384 14.07C4.44815 14.105 4.53851 14.1229 4.62977 14.1229C4.72103 14.1229 4.8114 14.105 4.89571 14.07C4.98001 14.0351 5.0566 13.9838 5.12109 13.9193L5.16845 13.8719C5.43131 13.6148 5.76519 13.4423 6.127 13.3767C6.4816 13.3124 6.84711 13.3537 7.17822 13.4951C7.51611 13.624 7.80871 13.8496 8.01927 14.144C8.23409 14.4444 8.35359 14.8024 8.36222 15.1716L8.36241 15.1797V15.2503C8.36241 15.4345 8.43558 15.6111 8.56581 15.7414C8.69605 15.8716 8.87268 15.9448 9.05686 15.9448C9.24104 15.9448 9.41767 15.8716 9.5479 15.7414C9.67814 15.6111 9.7513 15.4345 9.7513 15.2503V15.1323L9.75131 15.1295C9.75274 14.7706 9.85908 14.42 10.0572 14.1207C10.2547 13.8225 10.5348 13.5883 10.8633 13.4468C11.1988 13.2996 11.5706 13.2558 11.9312 13.3212C12.293 13.3868 12.6268 13.5593 12.8897 13.8164L12.8952 13.8217L12.9368 13.8634C13.0013 13.928 13.0782 13.9795 13.1625 14.0145C13.2468 14.0494 13.3371 14.0674 13.4284 14.0674C13.5196 14.0674 13.61 14.0494 13.6943 14.0145C13.7786 13.9795 13.8552 13.9283 13.9197 13.8637L13.9203 13.8632C13.9848 13.7987 14.036 13.7221 14.071 13.6378C14.1059 13.5535 14.1239 13.4631 14.1239 13.3719C14.1239 13.2806 14.1059 13.1902 14.071 13.1059C14.036 13.0216 13.9848 12.945 13.9203 12.8805L13.8729 12.8332C13.6158 12.5703 13.4433 12.2364 13.3777 11.8746C13.3123 11.5141 13.3561 11.1422 13.5033 10.8067C13.6449 10.4783 13.8791 10.1982 14.1773 10.0007C14.4765 9.80255 14.8271 9.69621 15.186 9.69478L15.1888 9.69477L15.2513 9.69477C15.4355 9.69477 15.6121 9.62161 15.7423 9.49137C15.8726 9.36114 15.9457 9.1845 15.9457 9.00033C15.9457 8.81615 15.8726 8.63951 15.7423 8.50928C15.6121 8.37905 15.4355 8.30588 15.2513 8.30588H15.1332L15.1305 8.30588C14.7716 8.30444 14.4209 8.1981 14.1217 7.99994C13.8225 7.80177 13.5877 7.52043 13.4463 7.19056L13.3902 7.05954V6.99001C13.2901 6.69508 13.2663 6.37865 13.3222 6.07047C13.3878 5.70866 13.5602 5.37481 13.8174 5.11195L13.8227 5.10647L13.8644 5.06484C13.929 5.00034 13.9805 4.92348 14.0154 4.83917C14.0504 4.75487 14.0684 4.6645 14.0684 4.57324C14.0684 4.48198 14.0504 4.39162 14.0154 4.30731C13.9805 4.22301 13.9293 4.14642 13.8647 4.08192L13.8641 4.08138C13.7997 4.01681 13.7231 3.96559 13.6388 3.93064C13.5545 3.89569 13.4641 3.87771 13.3728 3.87771C13.2816 3.87771 13.1912 3.89569 13.1069 3.93064C13.0226 3.96559 12.946 4.01681 12.8815 4.08138L12.8342 4.12873C12.5713 4.38586 12.2374 4.55831 11.8756 4.62391C11.515 4.68929 11.1431 4.64552 10.8076 4.49825C10.4792 4.35671 10.1992 4.12255 10.0017 3.82436C9.80353 3.52513 9.69718 3.17449 9.69575 2.8156L9.69575 2.81283V2.75033C9.69575 2.56615 9.62258 2.38951 9.49235 2.25928C9.36211 2.12905 9.18548 2.05588 9.0013 2.05588ZM7.52816 1.27719C7.91886 0.886486 8.44877 0.666992 9.0013 0.666992C9.55384 0.666992 10.0837 0.886486 10.4744 1.27719C10.8651 1.66789 11.0846 2.19779 11.0846 2.75033V2.81109C11.0852 2.89876 11.1113 2.98438 11.1597 3.05749C11.2083 3.13089 11.2773 3.18847 11.3582 3.22315L11.365 3.22608C11.4476 3.2625 11.5391 3.27339 11.6278 3.2573C11.7156 3.24139 11.7967 3.19983 11.8608 3.1379L11.8989 3.09983C12.0924 2.90613 12.3221 2.75246 12.575 2.64762C12.828 2.54278 13.099 2.48882 13.3728 2.48882C13.6466 2.48882 13.9177 2.54278 14.1706 2.64762C14.4235 2.75247 14.6533 2.90613 14.8468 3.09983C15.0402 3.2932 15.1937 3.52277 15.2985 3.77545C15.4033 4.02836 15.4573 4.29946 15.4573 4.57324C15.4573 4.84703 15.4033 5.11812 15.2985 5.37103C15.1937 5.62383 15.0401 5.8535 14.8465 6.04693C14.8464 6.04702 14.8466 6.04683 14.8465 6.04693L14.8082 6.08526C14.7462 6.14941 14.7047 6.23048 14.6888 6.31826C14.6727 6.407 14.6835 6.49853 14.72 6.58104L14.7791 6.71501V6.73958C14.8095 6.77937 14.8464 6.81403 14.8886 6.84196C14.9617 6.89037 15.0473 6.91644 15.135 6.91699H15.2513C15.8038 6.91699 16.3337 7.13649 16.7244 7.52719C17.1151 7.91789 17.3346 8.44779 17.3346 9.00033C17.3346 9.55286 17.1151 10.0828 16.7244 10.4735C16.3337 10.8642 15.8038 11.0837 15.2513 11.0837H15.1905C15.1029 11.0842 15.0172 11.1103 14.9441 11.1587C14.8707 11.2073 14.8132 11.2763 14.7785 11.3572L14.7755 11.3641C14.7391 11.4466 14.7282 11.5381 14.7443 11.6268C14.7602 11.7146 14.8018 11.7957 14.8637 11.8598L14.9018 11.8979C14.9019 11.898 14.9017 11.8978 14.9018 11.8979C15.0954 12.0913 15.2492 12.3213 15.354 12.5741C15.4588 12.827 15.5128 13.0981 15.5128 13.3719C15.5128 13.6456 15.4588 13.9167 15.354 14.1696C15.2492 14.4226 15.0955 14.6523 14.9018 14.8458L14.411 14.3545L14.9023 14.8453C14.7089 15.039 14.4791 15.1926 14.2262 15.2975C13.9733 15.4023 13.7022 15.4563 13.4284 15.4563C13.1546 15.4563 12.8835 15.4023 12.6306 15.2975C12.3778 15.1927 12.1481 15.0391 11.9547 14.8455C11.9546 14.8454 11.9548 14.8456 11.9547 14.8455L11.9163 14.8072C11.8522 14.7453 11.7711 14.7037 11.6834 14.6878C11.5946 14.6717 11.5031 14.6826 11.4206 14.719L11.4138 14.722C11.3329 14.7567 11.2638 14.8142 11.2152 14.8876C11.1668 14.9607 11.1407 15.0463 11.1402 15.134V15.2503C11.1402 15.8029 10.9207 16.3328 10.53 16.7235C10.1393 17.1142 9.60939 17.3337 9.05686 17.3337C8.50432 17.3337 7.97442 17.1142 7.58372 16.7235C7.19302 16.3328 6.97352 15.8029 6.97352 15.2503V15.1978C6.97023 15.1095 6.94107 15.024 6.88959 14.952C6.8369 14.8784 6.76327 14.8222 6.67826 14.791L6.65766 14.7834L6.63758 14.7745C6.55506 14.7381 6.46353 14.7273 6.37479 14.7433C6.28701 14.7593 6.20593 14.8008 6.14179 14.8628L6.10373 14.9008C6.10364 14.9009 6.10382 14.9007 6.10373 14.9008C5.9103 15.0944 5.68036 15.2482 5.42757 15.353C5.17465 15.4579 4.90356 15.5118 4.62977 15.5118C4.35599 15.5118 4.08489 15.4579 3.83198 15.353C3.57931 15.2483 3.34974 15.0948 3.15636 14.9014C2.96266 14.7079 2.809 14.4781 2.70415 14.2252C2.59931 13.9723 2.54535 13.7012 2.54535 13.4274C2.54535 13.1536 2.59931 12.8825 2.70415 12.6296C2.809 12.3767 2.96266 12.1469 3.15636 11.9535L3.19443 11.9154C3.25636 11.8512 3.29792 11.7702 3.31384 11.6824C3.32993 11.5936 3.31906 11.5021 3.28265 11.4196L3.27964 11.4128C3.24496 11.3319 3.18742 11.2629 3.11402 11.2143C3.04091 11.1658 2.95529 11.1398 2.86762 11.1392H2.7513C2.19877 11.1392 1.66886 10.9197 1.27816 10.529C0.887462 10.1383 0.667969 9.60842 0.667969 9.05588C0.667969 8.50335 0.887462 7.97344 1.27816 7.58274C1.66886 7.19204 2.19877 6.97255 2.7513 6.97255H2.80383C2.89216 6.96925 2.97763 6.94009 3.0496 6.88862C3.12327 6.83593 3.17939 6.76229 3.21065 6.67728L3.21823 6.65668L3.22709 6.6366C3.26351 6.55409 3.27437 6.46256 3.25828 6.37381C3.24236 6.28604 3.2008 6.20496 3.13887 6.14082L3.10081 6.10276C2.90711 5.90927 2.75344 5.6795 2.6486 5.42659C2.54376 5.17368 2.48979 4.90258 2.48979 4.6288C2.48979 4.35502 2.54376 4.08392 2.6486 3.83101C2.75339 3.57821 2.90696 3.34854 3.10053 3.15511C3.29396 2.96154 3.52363 2.80797 3.77643 2.70318C4.02934 2.59834 4.30044 2.54437 4.57422 2.54437C4.848 2.54437 5.1191 2.59834 5.37201 2.70318C5.62492 2.80802 5.85469 2.96168 6.04818 3.15539L6.08624 3.19345C6.15039 3.25538 6.23146 3.29694 6.31923 3.31286C6.40798 3.32895 6.49951 3.31809 6.58202 3.28167L6.71598 3.22255H6.74056C6.78034 3.19216 6.81501 3.15521 6.84293 3.11304C6.89135 3.03994 6.91742 2.95431 6.91797 2.86664V2.75033C6.91797 2.19779 7.13746 1.66789 7.52816 1.27719ZM9.0013 7.61144C8.23424 7.61144 7.61241 8.23326 7.61241 9.00033C7.61241 9.76739 8.23424 10.3892 9.0013 10.3892C9.76836 10.3892 10.3902 9.76739 10.3902 9.00033C10.3902 8.23326 9.76836 7.61144 9.0013 7.61144ZM6.22352 9.00033C6.22352 7.4662 7.46718 6.22255 9.0013 6.22255C10.5354 6.22255 11.7791 7.4662 11.7791 9.00033C11.7791 10.5345 10.5354 11.7781 9.0013 11.7781C7.46718 11.7781 6.22352 10.5345 6.22352 9.00033Z"
          fill="white"/>
</svg>
