<svg width="24" height="24" viewBox="0 0 24 24" fill="none" xmlns="http://www.w3.org/2000/svg">
    <g clip-path="url(#clip0_605_24514)">
        <path d="M3.88281 12.0918C3.88281 11.6133 4.05143 11.2054 4.38867 10.8682C4.73047 10.5309 5.13835 10.3623 5.6123 10.3623C6.09082 10.3623 6.4987 10.5309 6.83594 10.8682C7.17773 11.2054 7.34863 11.6133 7.34863 12.0918C7.34863 12.5703 7.17773 12.9805 6.83594 13.3223C6.4987 13.6595 6.09082 13.8281 5.6123 13.8281C5.13835 13.8281 4.73047 13.6595 4.38867 13.3223C4.05143 12.9805 3.88281 12.5703 3.88281 12.0918ZM10.791 12.0918C10.791 11.6133 10.9596 11.2054 11.2969 10.8682C11.6387 10.5309 12.0465 10.3623 12.5205 10.3623C12.999 10.3623 13.4069 10.5309 13.7441 10.8682C14.0859 11.2054 14.2568 11.6133 14.2568 12.0918C14.2568 12.5703 14.0859 12.9805 13.7441 13.3223C13.4069 13.6595 12.999 13.8281 12.5205 13.8281C12.0465 13.8281 11.6387 13.6595 11.2969 13.3223C10.9596 12.9805 10.791 12.5703 10.791 12.0918ZM17.6992 12.0918C17.6992 11.6133 17.8678 11.2054 18.2051 10.8682C18.5469 10.5309 18.9548 10.3623 19.4287 10.3623C19.9072 10.3623 20.3151 10.5309 20.6523 10.8682C20.9941 11.2054 21.165 11.6133 21.165 12.0918C21.165 12.5703 20.9941 12.9805 20.6523 13.3223C20.3151 13.6595 19.9072 13.8281 19.4287 13.8281C18.9548 13.8281 18.5469 13.6595 18.2051 13.3223C17.8678 12.9805 17.6992 12.5703 17.6992 12.0918Z"
              fill="#BFBFBF"/>
    </g>
    <defs>
        <clipPath id="clip0_605_24514">
            <rect width="24" height="24" fill="white"/>
        </clipPath>
    </defs>
</svg>
