<svg width="20" height="20" viewBox="0 0 20 20" fill="none" xmlns="http://www.w3.org/2000/svg">
    <path fill-rule="evenodd" clip-rule="evenodd"
          d="M9.99935 3.05564C9.81517 3.05564 9.63854 3.1288 9.5083 3.25904C9.37807 3.38927 9.30491 3.5659 9.30491 3.75008V3.87091C9.30347 4.2298 9.19712 4.58045 8.99896 4.87968C8.8008 5.1789 8.51946 5.41366 8.18958 5.55504L8.05856 5.61119H7.98903C7.6941 5.71125 7.37768 5.7351 7.06949 5.67922C6.70769 5.61362 6.37383 5.44114 6.11097 5.18401L6.1055 5.17866L6.06386 5.13696C5.99936 5.07239 5.9225 5.0209 5.8382 4.98595C5.75389 4.951 5.66353 4.93302 5.57227 4.93302C5.48101 4.93302 5.39064 4.951 5.30634 4.98595C5.22203 5.0209 5.14544 5.07212 5.08095 5.13669L5.0804 5.13723C5.01583 5.20173 4.96461 5.27832 4.92966 5.36262C4.89472 5.44693 4.87673 5.53729 4.87673 5.62855C4.87673 5.71982 4.89472 5.81018 4.92966 5.89449C4.96461 5.97879 5.01583 6.05538 5.0804 6.11987L5.12776 6.16723C5.38488 6.43009 5.55733 6.76397 5.62293 7.12578C5.68723 7.48038 5.64597 7.84589 5.50452 8.17701C5.37566 8.51489 5.15003 8.80749 4.85563 9.01806C4.55528 9.23287 4.19725 9.35237 3.82809 9.361L3.81997 9.36119H3.74935C3.56517 9.36119 3.38854 9.43436 3.2583 9.56459C3.12807 9.69483 3.0549 9.87146 3.0549 10.0556C3.0549 10.2398 3.12807 10.4165 3.2583 10.5467C3.38854 10.6769 3.56517 10.7501 3.74935 10.7501H3.87017C4.22907 10.7515 4.57971 10.8579 4.87894 11.056C5.17713 11.2535 5.41129 11.5336 5.55283 11.862C5.7001 12.1975 5.74387 12.5694 5.67849 12.9299C5.61289 13.2917 5.4404 13.6256 5.18328 13.8885L5.17792 13.8939L5.13623 13.9356C5.07166 14.0001 5.02017 14.0769 4.98522 14.1612C4.95027 14.2455 4.93228 14.3359 4.93228 14.4272C4.93228 14.5184 4.95027 14.6088 4.98522 14.6931C5.02017 14.7774 5.07139 14.854 5.13596 14.9185L5.1365 14.919C5.201 14.9836 5.27759 15.0348 5.36189 15.0698C5.4462 15.1047 5.53656 15.1227 5.62782 15.1227C5.71908 15.1227 5.80945 15.1047 5.89375 15.0698C5.97806 15.0348 6.05465 14.9836 6.11914 14.919L6.1665 14.8717C6.42936 14.6146 6.76324 14.4421 7.12505 14.3765C7.47965 14.3122 7.84516 14.3535 8.17627 14.4949C8.51416 14.6238 8.80676 14.8494 9.01732 15.1438C9.23214 15.4442 9.35164 15.8022 9.36027 16.1713L9.36046 16.1795V16.2501C9.36046 16.4343 9.43363 16.6109 9.56386 16.7411C9.69409 16.8714 9.87073 16.9445 10.0549 16.9445C10.2391 16.9445 10.4157 16.8714 10.546 16.7411C10.6762 16.6109 10.7494 16.4343 10.7494 16.2501V16.132L10.7494 16.1293C10.7508 15.7704 10.8571 15.4197 11.0553 15.1205C11.2528 14.8223 11.5329 14.5881 11.8613 14.4466C12.1968 14.2993 12.5687 14.2556 12.9292 14.3209C13.291 14.3865 13.6249 14.559 13.8877 14.8162L13.8932 14.8215L13.9348 14.8632C13.9993 14.9278 14.0762 14.9793 14.1605 15.0142C14.2448 15.0492 14.3352 15.0671 14.4264 15.0671C14.5177 15.0671 14.6081 15.0492 14.6924 15.0142C14.7767 14.9793 14.8533 14.928 14.9178 14.8635L14.9183 14.8629C14.9829 14.7984 15.0341 14.7218 15.069 14.6375C15.104 14.5532 15.122 14.4629 15.122 14.3716C15.122 14.2804 15.104 14.19 15.069 14.1057C15.0341 14.0214 14.9829 13.9448 14.9183 13.8803L14.8709 13.8329C14.6138 13.5701 14.4414 13.2362 14.3758 12.8744C14.3104 12.5138 14.3541 12.142 14.5014 11.8065C14.6429 11.4781 14.8771 11.198 15.1753 11.0005C15.4745 10.8023 15.8252 10.696 16.1841 10.6945L16.1869 10.6945L16.2494 10.6945C16.4335 10.6945 16.6102 10.6214 16.7404 10.4911C16.8706 10.3609 16.9438 10.1843 16.9438 10.0001C16.9438 9.81591 16.8706 9.63927 16.7404 9.50904C16.6102 9.3788 16.4335 9.30564 16.2494 9.30564H16.1313L16.1285 9.30563C15.7696 9.3042 15.419 9.19786 15.1198 8.99969C14.8205 8.80153 14.5858 8.52019 14.4444 8.19031L14.3882 8.05929V7.98976C14.2882 7.69484 14.2643 7.37841 14.3202 7.07022C14.3858 6.70842 14.5583 6.37456 14.8154 6.1117L14.8208 6.10623L14.8625 6.06459C14.927 6.0001 14.9785 5.92323 15.0135 5.83893C15.0484 5.75462 15.0664 5.66426 15.0664 5.573C15.0664 5.48174 15.0484 5.39137 15.0135 5.30707C14.9785 5.22276 14.9273 5.14618 14.8627 5.08168L14.8622 5.08113C14.7977 5.01657 14.7211 4.96534 14.6368 4.9304C14.5525 4.89545 14.4621 4.87746 14.3709 4.87746C14.2796 4.87746 14.1893 4.89545 14.1049 4.9304C14.0206 4.96534 13.9441 5.01657 13.8796 5.08113L13.8322 5.12849C13.5693 5.38561 13.2355 5.55806 12.8737 5.62367C12.5131 5.68905 12.1412 5.64528 11.8057 5.49801C11.4773 5.35647 11.1972 5.12231 10.9997 4.82412C10.8016 4.52489 10.6952 4.17425 10.6938 3.81535L10.6938 3.81258V3.75008C10.6938 3.5659 10.6206 3.38927 10.4904 3.25904C10.3602 3.1288 10.1835 3.05564 9.99935 3.05564ZM8.52621 2.27694C8.91691 1.88624 9.44682 1.66675 9.99935 1.66675C10.5519 1.66675 11.0818 1.88624 11.4725 2.27694C11.8632 2.66764 12.0827 3.19755 12.0827 3.75008V3.81084C12.0832 3.89852 12.1093 3.98414 12.1577 4.05725C12.2063 4.13064 12.2753 4.18822 12.3562 4.2229L12.3631 4.22584C12.4456 4.26225 12.5371 4.27315 12.6259 4.25706C12.7136 4.24114 12.7947 4.19958 12.8588 4.13766L12.8969 4.09959C13.0904 3.90588 13.3202 3.75222 13.5731 3.64738C13.826 3.54254 14.0971 3.48857 14.3709 3.48857C14.6447 3.48857 14.9158 3.54254 15.1687 3.64738C15.4216 3.75222 15.6514 3.90589 15.8448 4.09959C16.0383 4.29296 16.1918 4.52253 16.2965 4.77521C16.4013 5.02812 16.4553 5.29922 16.4553 5.573C16.4553 5.84678 16.4013 6.11788 16.2965 6.37079C16.1917 6.62359 16.0381 6.85325 15.8446 7.04668C15.8445 7.04677 15.8447 7.04659 15.8446 7.04668L15.8062 7.08502C15.7443 7.14916 15.7027 7.23024 15.6868 7.31801C15.6707 7.40676 15.6816 7.49829 15.718 7.5808L15.7771 7.71476V7.73934C15.8075 7.77912 15.8445 7.81379 15.8866 7.84171C15.9597 7.89013 16.0454 7.9162 16.133 7.91675H16.2494C16.8019 7.91675 17.3318 8.13624 17.7225 8.52694C18.1132 8.91764 18.3327 9.44755 18.3327 10.0001C18.3327 10.5526 18.1132 11.0825 17.7225 11.4732C17.3318 11.8639 16.8019 12.0834 16.2494 12.0834H16.1886C16.1009 12.084 16.0153 12.11 15.9422 12.1585C15.8688 12.2071 15.8112 12.2761 15.7765 12.357L15.7736 12.3638C15.7372 12.4463 15.7263 12.5379 15.7424 12.6266C15.7583 12.7144 15.7998 12.7954 15.8618 12.8596L15.8998 12.8977C15.8999 12.8977 15.8998 12.8976 15.8998 12.8977C16.0934 13.0911 16.2473 13.321 16.3521 13.5738C16.4569 13.8267 16.5109 14.0978 16.5109 14.3716C16.5109 14.6454 16.4569 14.9165 16.3521 15.1694C16.2472 15.4223 16.0935 15.6521 15.8998 15.8456L15.4091 15.3542L15.9004 15.845C15.7069 16.0387 15.4771 16.1924 15.2242 16.2972C14.9713 16.4021 14.7002 16.456 14.4264 16.456C14.1527 16.456 13.8816 16.4021 13.6286 16.2972C13.3758 16.1924 13.1462 16.0389 12.9527 15.8453C12.9527 15.8452 12.9528 15.8454 12.9527 15.8453L12.9144 15.8069C12.8503 15.745 12.7692 15.7035 12.6814 15.6876C12.5927 15.6715 12.5011 15.6823 12.4186 15.7187L12.4118 15.7217C12.3309 15.7564 12.2619 15.814 12.2133 15.8874C12.1649 15.9605 12.1388 16.0461 12.1382 16.1338V16.2501C12.1382 16.8026 11.9187 17.3325 11.528 17.7232C11.1373 18.1139 10.6074 18.3334 10.0549 18.3334C9.50237 18.3334 8.97247 18.1139 8.58177 17.7232C8.19107 17.3325 7.97157 16.8026 7.97157 16.2501V16.1976C7.96828 16.1092 7.93912 16.0238 7.88764 15.9518C7.83495 15.8781 7.76132 15.822 7.67631 15.7907L7.65571 15.7832L7.63562 15.7743C7.55311 15.7379 7.46158 15.727 7.37284 15.7431C7.28506 15.759 7.20398 15.8006 7.13984 15.8625L7.10178 15.9006C7.10169 15.9007 7.10187 15.9005 7.10178 15.9006C6.90835 16.0942 6.67841 16.248 6.42561 16.3528C6.1727 16.4576 5.90161 16.5116 5.62782 16.5116C5.35404 16.5116 5.08294 16.4576 4.83003 16.3528C4.57736 16.248 4.34778 16.0946 4.15441 15.9011C3.96071 15.7076 3.80704 15.4779 3.7022 15.225C3.59736 14.972 3.5434 14.701 3.5434 14.4272C3.5434 14.1534 3.59736 13.8823 3.7022 13.6294C3.80704 13.3765 3.96071 13.1467 4.15441 12.9532L4.19248 12.9151C4.25441 12.851 4.29597 12.7699 4.31188 12.6822C4.32797 12.5934 4.31711 12.5019 4.28069 12.4194L4.27769 12.4126C4.24301 12.3316 4.18547 12.2626 4.11207 12.214C4.03896 12.1656 3.95334 12.1395 3.86567 12.139H3.74935C3.19681 12.139 2.66691 11.9195 2.27621 11.5288C1.88551 11.1381 1.66602 10.6082 1.66602 10.0556C1.66602 9.5031 1.88551 8.9732 2.27621 8.5825C2.66691 8.1918 3.19681 7.9723 3.74935 7.9723H3.80188C3.89021 7.96901 3.97568 7.93985 4.04765 7.88837C4.12132 7.83568 4.17743 7.76205 4.2087 7.67704L4.21628 7.65644L4.22514 7.63636C4.26156 7.55384 4.27242 7.46231 4.25633 7.37357C4.24041 7.28579 4.19885 7.20472 4.13692 7.14058L4.09885 7.10251C3.90515 6.90903 3.75149 6.67926 3.64665 6.42635C3.5418 6.17343 3.48784 5.90234 3.48784 5.62855C3.48784 5.35477 3.5418 5.08367 3.64665 4.83076C3.75144 4.57797 3.90501 4.3483 4.09858 4.15487C4.29201 3.9613 4.52168 3.80773 4.77447 3.70293C5.02739 3.59809 5.29848 3.54413 5.57227 3.54413C5.84605 3.54413 6.11715 3.59809 6.37006 3.70293C6.62297 3.80778 6.85274 3.96144 7.04623 4.15514L7.08429 4.1932C7.14843 4.25514 7.2295 4.2967 7.31728 4.31262C7.40603 4.32871 7.49756 4.31784 7.58007 4.28143L7.71403 4.2223H7.73861C7.77839 4.19192 7.81305 4.15497 7.84098 4.1128C7.8894 4.03969 7.91547 3.95407 7.91602 3.8664V3.75008C7.91602 3.19755 8.13551 2.66764 8.52621 2.27694ZM9.99935 8.61119C9.23229 8.61119 8.61046 9.23302 8.61046 10.0001C8.61046 10.7671 9.23229 11.389 9.99935 11.389C10.7664 11.389 11.3882 10.7671 11.3882 10.0001C11.3882 9.23302 10.7664 8.61119 9.99935 8.61119ZM7.22157 10.0001C7.22157 8.46596 8.46523 7.2223 9.99935 7.2223C11.5335 7.2223 12.7771 8.46596 12.7771 10.0001C12.7771 11.5342 11.5335 12.7779 9.99935 12.7779C8.46523 12.7779 7.22157 11.5342 7.22157 10.0001Z"
          fill="#D9D9D9"/>
</svg>
